HIERARCHY
ROOT Hips
{
	OFFSET 0.000000 0.000000 0.000000
	CHANNELS 6 Xposition Yposition Zposition Zrotation Yrotation Xrotation 
	JOINT LHipJoint
	{
		OFFSET 0.000000 0.000000 0.000000
		CHANNELS 3 Zrotation Yrotation Xrotation
		JOINT LeftUpLeg
		{
			OFFSET 1.363060 -1.794630 0.839290
			CHANNELS 3 Zrotation Yrotation Xrotation
			JOINT LeftLeg
			{
				OFFSET 2.448110 -6.726130 0.000000
				CHANNELS 3 Zrotation Yrotation Xrotation
				JOINT LeftFoot
				{
					OFFSET 2.562200 -7.039590 0.000000
					CHANNELS 3 Zrotation Yrotation Xrotation
					JOINT LeftToeBase
					{
						OFFSET 0.157640 -0.433110 2.322550
						CHANNELS 3 Zrotation Yrotation Xrotation
						End Site
						{
							OFFSET 0.000000 0.000000 0.000000
						}
					}
				}
			}
		}
	}
	JOINT RHipJoint
	{
		OFFSET 0.000000 0.000000 0.000000
		CHANNELS 3 Zrotation Yrotation Xrotation
		JOINT RightUpLeg
		{
			OFFSET -1.305520 -1.794630 0.839290
			CHANNELS 3 Zrotation Yrotation Xrotation
			JOINT RightLeg
			{
				OFFSET -2.542530 -6.985550 0.000000
				CHANNELS 3 Zrotation Yrotation Xrotation
				JOINT RightFoot
				{
					OFFSET -2.568260 -7.056230 0.000000
					CHANNELS 3 Zrotation Yrotation Xrotation
					JOINT RightToeBase
					{
						OFFSET -0.164730 -0.452590 2.363150
						CHANNELS 3 Zrotation Yrotation Xrotation
						End Site
						{
							OFFSET 0.000000 0.000000 0.000000
						}
					}
				}
			}
		}
	}
	JOINT LowerBack
	{
		OFFSET 0.000000 0.000000 0.000000
		CHANNELS 3 Zrotation Yrotation Xrotation
		JOINT Spine
		{
			OFFSET 0.028270 2.035590 -0.193380
			CHANNELS 3 Zrotation Yrotation Xrotation
			JOINT Spine1
			{
				OFFSET 0.056720 2.048850 -0.042750
				CHANNELS 3 Zrotation Yrotation Xrotation
				JOINT Neck
				{
					OFFSET 0.000000 0.000000 0.000000
					CHANNELS 3 Zrotation Yrotation Xrotation
					JOINT Neck1
					{
						OFFSET -0.054170 1.746240 0.172020
						CHANNELS 3 Zrotation Yrotation Xrotation
						JOINT Head
						{
							OFFSET 0.104070 1.761360 -0.123970
							CHANNELS 3 Zrotation Yrotation Xrotation
							End Site
							{
								OFFSET 0.000000 0.000000 0.000000
							}
						}
					}
				}
				JOINT LeftShoulder
				{
					OFFSET 0.000000 0.000000 0.000000
					CHANNELS 3 Zrotation Yrotation Xrotation
					JOINT LeftArm
					{
						OFFSET 3.362410 1.200890 -0.311210
						CHANNELS 3 Zrotation Yrotation Xrotation
						JOINT LeftForeArm
						{
							OFFSET 4.983000 -0.000000 -0.000000
							CHANNELS 3 Zrotation Yrotation Xrotation
							JOINT LeftHand
							{
								OFFSET 3.483560 -0.000000 -0.000000
								CHANNELS 3 Zrotation Yrotation Xrotation
								JOINT LeftFingerBase
								{
									OFFSET 0.000000 0.000000 0.000000
									CHANNELS 3 Zrotation Yrotation Xrotation
									JOINT LeftHandIndex1
									{
										OFFSET 0.715260 -0.000000 -0.000000
										CHANNELS 3 Zrotation Yrotation Xrotation
										End Site
										{
											OFFSET 0.000000 0.000000 0.000000
										}
									}
								}
								JOINT LThumb
								{
									OFFSET 0.000000 0.000000 0.000000
									CHANNELS 3 Zrotation Yrotation Xrotation
									End Site
									{
										OFFSET 0.000000 0.000000 0.000000
									}
								}
							}
						}
					}
				}
				JOINT RightShoulder
				{
					OFFSET 0.000000 0.000000 0.000000
					CHANNELS 3 Zrotation Yrotation Xrotation
					JOINT RightArm
					{
						OFFSET -3.136600 1.374050 -0.404650
						CHANNELS 3 Zrotation Yrotation Xrotation
						JOINT RightForeArm
						{
							OFFSET -5.241900 -0.000000 -0.000000
							CHANNELS 3 Zrotation Yrotation Xrotation
							JOINT RightHand
							{
								OFFSET -3.444170 -0.000000 -0.000000
								CHANNELS 3 Zrotation Yrotation Xrotation
								JOINT RightFingerBase
								{
									OFFSET 0.000000 0.000000 0.000000
									CHANNELS 3 Zrotation Yrotation Xrotation
									JOINT RightHandIndex1
									{
										OFFSET -0.622530 -0.000000 -0.000000
										CHANNELS 3 Zrotation Yrotation Xrotation
										End Site
										{
											OFFSET 0.000000 0.000000 0.000000
										}
									}
								}
								JOINT RThumb
								{
									OFFSET 0.000000 0.000000 0.000000
									CHANNELS 3 Zrotation Yrotation Xrotation
									End Site
									{
										OFFSET 0.000000 0.000000 0.000000
									}
								}
							}
						}
					}
				}
			}
		}
	}
}
MOTION
Frames: 5
Frame Time: 0.008333
-2.476335 17.301800 -1.437604 -178.675314 -6.653709 -174.255723 -1.208686 20.663685 1.187183 -18.646944 -1.710962 -7.779732 -6.237066 6.477700 27.517486 13.665498 -9.344709 -13.846290 -13.003010 22.083490 -12.240715 4.289560 -26.527316 -4.354512 20.988500 11.832981 -27.877602 -13.193716 -4.454189 53.839491 -26.643093 4.264724 -4.460495 7.284744 -6.043825 -9.533849 -3.390564 0.150108 10.877815 -6.917676 -1.101080 19.080529 3.876211 6.176811 -33.293419 -0.586350 0.166631 -15.634094 9.228758 -2.530622 14.278663 -1.482752 -5.841189 -5.919357 5.062894 33.274968 -0.654500 -78.019962 -7.215505 54.584095 -1.293853 -15.336681 18.259327 1.271325 -7.636243 5.974508 -6.176901 15.320333 -0.000000 0.000000 0.000000 0.000000 0.000000 0.000000 0.000000 1.324786 -30.205119 3.342259 66.713342 6.125994 46.379528 0.169077 41.041033 9.969242 -10.417588 3.732467 9.400696 -1.032056 -14.094793 0.000000 0.000000 0.000000 0.000000 0.000000 0.000000 0.000000 
-2.486730 17.299550 -1.483262 -178.584793 -6.506188 -174.171665 -1.191967 20.653131 1.201985 -18.558395 -1.689386 -7.753229 -6.261621 6.554927 27.508068 13.701794 -9.302781 -13.870509 -12.977246 22.115287 -12.257003 4.299941 -26.598520 -4.498939 21.530447 11.820007 -27.730628 -12.844783 -4.299199 52.417846 -26.552855 4.546879 -4.699533 7.313282 -5.876406 -9.581106 -3.503327 0.148043 10.994009 -6.807641 -1.063087 18.955817 3.942259 6.206434 -33.218033 -0.571988 0.204242 -15.596967 9.249042 -2.439155 14.142123 -1.465744 -5.781896 -6.005218 5.056419 33.301646 -0.684004 -77.972248 -7.247079 54.363909 -1.226711 -15.275108 18.171323 1.277167 -7.336113 5.946733 -6.151985 15.332928 -0.000000 0.000000 0.000000 0.000000 0.000000 0.000000 0.000000 1.358389 -30.064102 3.455756 66.937930 5.953585 46.289824 0.095731 41.066762 10.001552 -10.482066 3.830797 9.469574 -1.012598 -14.126647 0.000000 0.000000 0.000000 0.000000 0.000000 0.000000 0.000000 
-2.495835 17.296400 -1.531215 -178.476960 -6.366739 -174.086309 -1.164738 20.643900 1.215776 -18.442416 -1.649919 -7.731566 -6.304506 6.641166 27.494178 13.714769 -9.270336 -13.914759 -12.949355 22.132512 -12.240057 4.306893 -26.656115 -4.636753 22.110973 11.794595 -27.515716 -12.508247 -4.110986 50.902394 -26.457629 4.858550 -4.995010 7.330010 -5.713482 -9.564941 -3.639284 0.148110 11.098039 -6.703499 -1.021207 18.839800 4.067635 6.262040 -33.147966 -0.564349 0.260299 -15.548387 9.276473 -2.333046 14.000250 -1.446029 -5.721452 -6.093629 5.106346 33.321006 -0.708722 -77.985496 -7.224118 54.107343 -1.170145 -15.268979 18.072767 1.194147 -7.342499 5.819179 -6.126156 15.306376 -0.000000 0.000000 0.000000 0.000000 0.000000 0.000000 0.000000 1.400378 -29.934816 3.542079 67.118488 5.810896 46.239867 0.074268 41.019296 9.984842 -10.486308 3.922323 9.473751 -0.980608 -14.160551 0.000000 0.000000 0.000000 0.000000 0.000000 0.000000 0.000000 
-2.505165 17.292200 -1.579695 -178.386196 -6.216830 -173.996316 -1.135775 20.623438 1.234880 -18.345250 -1.597090 -7.667184 -6.362758 6.687429 27.414916 13.975657 -9.304214 -13.920428 -12.825565 22.255203 -12.288624 4.298473 -26.699685 -4.762963 22.686085 11.778169 -27.295567 -12.161165 -3.892502 49.360243 -26.550774 5.232909 -5.192548 7.328250 -5.522175 -9.639166 -3.743058 0.136861 11.189402 -6.633045 -0.993487 18.709221 4.177222 6.320993 -33.055639 -0.547405 0.268048 -15.512584 9.272500 -2.272216 13.886340 -1.437039 -5.662966 -6.168442 5.131758 33.327261 -0.735260 -77.980157 -7.220021 53.913856 -1.111900 -15.273523 17.985482 1.168245 -7.289326 5.749780 -6.092174 15.291100 -0.000000 0.000000 0.000000 0.000000 0.000000 0.000000 0.000000 1.444732 -29.746367 3.648861 67.312923 5.666655 46.215321 0.043100 40.916238 9.951283 -10.486559 3.955513 9.464655 -0.945638 -14.205196 0.000000 0.000000 0.000000 0.000000 0.000000 0.000000 0.000000 
-2.514375 17.287400 -1.628745 -178.292324 -6.055893 -173.892288 -1.097521 20.572498 1.244157 -18.281551 -1.571822 -7.571873 -6.382737 6.737345 27.280467 13.956767 -9.220783 -13.981454 -12.836463 22.264035 -12.329982 4.281354 -26.719203 -4.882660 23.249824 11.764993 -27.060936 -11.768175 -3.644887 47.778556 -26.408777 5.657606 -5.558363 7.340467 -5.385168 -9.512561 -3.848135 0.135149 11.286462 -6.551239 -0.956691 18.617652 4.272921 6.372246 -33.017906 -0.539467 0.300509 -15.468388 9.286134 -2.189809 13.747121 -1.423139 -5.607183 -6.257499 5.144397 33.348683 -0.776000 -77.952127 -7.236423 53.742128 -1.107498 -15.309902 17.815662 1.158523 -7.132885 5.668349 -6.043343 15.281455 -0.000000 0.000000 0.000000 0.000000 0.000000 0.000000 0.000000 1.499024 -29.606433 3.711991 67.497891 5.541992 46.269159 0.031163 40.752324 9.913749 -10.498965 3.957226 9.463455 -0.915949 -14.254649 0.000000 0.000000 0.000000 0.000000 0.000000 0.000000 0.000000 
